<?xml version="1.0" standalone="no"?>
<!DOCTYPE svg PUBLIC "-//W3C//DTD SVG 20010904//EN"
 "http://www.w3.org/TR/2001/REC-SVG-20010904/DTD/svg10.dtd">
<svg version="1.0" xmlns="http://www.w3.org/2000/svg"
 width="747.000000pt" height="747.000000pt" viewBox="0 0 747.000000 747.000000"
 preserveAspectRatio="xMidYMid meet">
<metadata>
Created by potrace 1.14, written by Peter Selinger 2001-2017
</metadata>
<g transform="translate(0.000000,747.000000) scale(0.100000,-0.100000)"
fill="#000000" stroke="none">
<path d="M0 3735 l0 -3735 3735 0 3735 0 0 3735 0 3735 -3735 0 -3735 0 0
-3735z m3970 3050 c158 -50 278 -99 450 -185 546 -271 1005 -670 1329 -1155
487 -727 669 -1555 505 -2293 -62 -280 -195 -586 -341 -783 -23 -32 -43 -63
-43 -68 0 -6 189 -188 419 -406 401 -377 422 -398 456 -468 104 -210 17 -446
-203 -550 -61 -29 -75 -32 -167 -32 -92 0 -105 3 -166 33 -76 36 -71 32 -578
570 -183 193 -334 352 -336 352 -1 0 -54 -24 -116 -54 -454 -218 -964 -262
-1477 -131 -376 97 -709 288 -984 567 -59 59 -109 108 -112 108 -2 0 -7 -12
-11 -28 -16 -72 -82 -134 -224 -211 -169 -92 -333 -254 -417 -414 -20 -39 -54
-114 -74 -168 -47 -123 -111 -227 -203 -325 -127 -137 -289 -241 -433 -278
-33 -8 -120 -18 -194 -20 -126 -5 -138 -4 -174 17 -59 33 -72 68 -80 209 -6
93 -4 141 7 194 32 150 136 323 272 452 103 97 203 161 340 217 194 79 304
152 423 280 75 79 127 155 180 261 54 108 124 170 212 189 19 4 50 21 69 38
56 48 96 60 180 54 l74 -6 61 52 c34 29 69 59 79 66 15 12 26 5 100 -65 120
-115 246 -205 382 -273 230 -115 427 -168 666 -178 246 -10 474 27 689 113
l92 37 -149 151 c-322 326 -1125 1159 -1446 1499 -103 109 -189 198 -193 198
-3 1 -163 -153 -356 -342 l-350 -342 -369 369 c-203 203 -369 372 -369 375 0
5 639 642 1250 1247 l236 232 404 -55 c685 -92 901 -123 906 -128 2 -2 -207
-212 -466 -467 -259 -255 -469 -466 -468 -471 4 -9 289 -280 988 -939 283
-267 608 -574 723 -682 115 -109 213 -198 217 -198 20 0 135 175 195 295 167
336 208 640 145 1087 -109 773 -476 1482 -1036 2000 -188 173 -430 355 -616
462 -27 16 -48 30 -48 33 0 5 12 2 150 -42z"/>
</g>
</svg>
