<?xml version="1.0" standalone="no"?>
<!DOCTYPE svg PUBLIC "-//W3C//DTD SVG 20010904//EN"
 "http://www.w3.org/TR/2001/REC-SVG-20010904/DTD/svg10.dtd">
<svg version="1.0" xmlns="http://www.w3.org/2000/svg"
 width="520.000000pt" height="520.000000pt" viewBox="0 0 520.000000 520.000000"
 preserveAspectRatio="xMidYMid meet">
<metadata>
Created by potrace 1.14, written by Peter Selinger 2001-2017
</metadata>
<g transform="translate(0.000000,520.000000) scale(0.100000,-0.100000)"
fill="#000000" stroke="none">
<path d="M0 2600 l0 -2600 2600 0 2600 0 0 2600 0 2600 -2600 0 -2600 0 0
-2600z m2436 2041 c-3 -5 1 -12 10 -15 10 -4 13 -2 8 6 -4 7 -3 8 5 4 6 -4 17
-4 24 1 15 12 657 11 676 -1 8 -5 16 -4 22 5 5 9 9 10 9 2 0 -6 11 -10 23 -9
13 2 24 -2 24 -8 0 -7 -19 -11 -48 -10 -27 0 -54 -3 -61 -7 -6 -4 -20 -3 -30
2 -10 5 -18 6 -18 1 0 -5 -10 -8 -22 -7 -13 1 -27 -1 -33 -6 -17 -13 -19 -13
-42 -1 -12 7 -24 9 -26 5 -3 -5 -55 -8 -116 -8 -61 0 -111 -4 -111 -9 0 -5 -7
-3 -15 4 -8 7 -15 8 -15 3 0 -6 -19 -8 -45 -6 -32 4 -45 1 -45 -8 0 -8 -6 -5
-16 7 -8 10 -13 14 -10 7 9 -18 -17 -21 -41 -5 -19 12 -23 12 -23 1 -1 -10 -4
-9 -14 4 -16 20 -37 22 -55 5 -11 -11 -12 -10 -6 1 6 10 4 13 -7 9 -10 -4 -14
0 -12 15 3 27 3 27 10 27 3 0 3 -4 0 -9z m908 1 c3 -5 -1 -9 -9 -9 -8 0 -12 4
-9 9 3 4 7 8 9 8 2 0 6 -4 9 -8z m162 -7 c-1 -8 -5 -17 -8 -21 -5 -4 -4 16 1
34 3 9 9 -1 7 -13z m133 -8 c0 -9 -2 -8 -6 1 -2 6 -10 9 -15 6 -7 -4 -8 -2 -4
5 9 13 26 5 25 -12z m86 13 c-3 -5 -12 -10 -18 -10 -7 0 -6 4 3 10 19 12 23
12 15 0z m-1321 -30 c-6 -6 -10 -3 -10 10 0 13 4 16 10 10 7 -7 7 -13 0 -20z
m957 7 c-10 -9 -11 -8 -5 6 3 10 9 15 12 12 3 -3 0 -11 -7 -18z m-91 3 c0 -5
-2 -10 -4 -10 -3 0 -8 5 -11 10 -3 6 -1 10 4 10 6 0 11 -4 11 -10z m275 0 c3
-6 -1 -7 -9 -4 -18 7 -21 14 -7 14 6 0 13 -4 16 -10z m145 0 c0 -5 -2 -10 -4
-10 -3 0 -8 5 -11 10 -3 6 -1 10 4 10 6 0 11 -4 11 -10z m-1200 -30 c0 -5 -4
-10 -10 -10 -5 0 -10 5 -10 10 0 6 5 10 10 10 6 0 10 -4 10 -10z m-75 -596
c-1 -10 4 -22 10 -26 6 -5 5 -8 -4 -8 -11 0 -11 -3 0 -17 10 -11 10 -14 2 -9
-12 7 -19 -13 -13 -39 1 -5 -2 -6 -7 -2 -11 12 -10 41 2 49 6 4 2 8 -7 8 -10
0 -18 4 -18 10 0 5 8 7 18 4 16 -5 16 -4 0 7 -15 12 -15 14 0 27 16 13 16 13
-1 8 -11 -4 -16 -2 -12 5 10 16 30 5 30 -17z m-1300 -134 c-3 -5 1 -10 7 -13
7 -2 10 -8 6 -12 -5 -5 -16 -1 -26 8 -10 10 -22 14 -26 10 -4 -5 -6 -1 -4 7 2
8 7 18 13 22 11 8 37 -11 30 -22z m29 -56 c3 -8 2 -12 -4 -9 -6 3 -10 10 -10
16 0 14 7 11 14 -7z m1716 -2038 c0 -3 -4 -8 -10 -11 -5 -3 -10 -1 -10 4 0 6
5 11 10 11 6 0 10 -2 10 -4z m-530 -350 c0 -2 -8 -10 -17 -17 -16 -13 -17 -12
-4 4 13 16 21 21 21 13z m-15 -62 c13 -5 14 -8 3 -15 -10 -6 -8 -9 7 -9 16 0
17 -2 5 -10 -9 -6 -17 -5 -21 1 -4 7 -8 5 -12 -4 -4 -11 1 -14 19 -12 25 2 33
-9 11 -18 -7 -3 -24 1 -38 9 -13 7 -18 13 -10 14 7 0 11 6 7 15 -3 8 -2 14 2
14 19 -3 25 2 12 11 -17 11 -9 13 15 4z m-5 -86 c0 -5 6 -6 13 -3 6 4 4 0 -5
-8 -10 -8 -15 -17 -11 -20 3 -4 1 -7 -6 -7 -8 0 -10 7 -6 21 6 19 5 20 -15 9
-19 -10 -20 -10 -9 8 12 19 39 19 39 0z"/>
</g>
</svg>
